# xmcd
#
# Track frame offsets: 
#        183
#        15163
#        51343
#
# Disc length: 1165 seconds
#
# Revision: 0
# Processed by: cddbd v1.5PL3 Copyright (c) Steve Scherf et al.
# Submitted via: ExactAudioCopy v0.95a4
#
DISCID=18048b03
DTITLE=Timo Maas - Ubik (ft. Martin Bettinghaus) [CD2) [PERF10CDS2]
DYEAR=2000
DGENRE=Electronic
TTITLE0=Ubik (The Dance) (Radio Mix)
TTITLE1=Ubik (The Dance) (Original Mix Instrumental)
TTITLE2=Ubik (The Dance) (Original Mix)
EXTD=
EXTT0=
EXTT1=
EXTT2=
PLAYORDER=
